<?xml version="1.0" encoding="utf-8"?>
<!-- Generator: Adobe Illustrator 14.0.0, SVG Export Plug-In . SVG Version: 6.00 Build 43363)  -->
<!DOCTYPE svg PUBLIC "-//W3C//DTD SVG 1.1//EN" "http://www.w3.org/Graphics/SVG/1.1/DTD/svg11.dtd">
<svg version="1.1" id="Layer_1" xmlns="http://www.w3.org/2000/svg" xmlns:xlink="http://www.w3.org/1999/xlink" x="0px" y="0px"
	 width="627.524px" height="693.511px" viewBox="0 0 627.524 693.511" enable-background="new 0 0 627.524 693.511"
	 xml:space="preserve">
<path fill="#FFD683" d="M570.116,506.365c-0.05-8.893-13.311-14.722-18.62-5.14c-5.774,10.421-20.725,3.188-29.738-3.125
	c-2.239-1.34-0.804-2.939-0.047-3.568c6.285-5.233,9.206-13.184,3.71-21.854c-2.007-3.168-4.847-4.949-8.025-5.706
	c-0.567-0.134-1.717-0.315-1.495-2.241c1.319-11.45-1.543-32.559-17.579-23.719c-10.884,6.005-16.366,21.715-18.568,37.255
	c-0.104,0.726-0.608,1.878-2.186,1.313c-2.291-0.817-4.848-0.971-7.525-0.233c-1.141,0.313-2.911,0.933-4.095-0.957
	c-3.236-5.167-11.082-7.573-15.548-2.097c-0.429,0.524-1.598,1.055-2.515,0.14c-4.043-3.668-11.009-4.045-14.55,0.069
	c-4.899,1.098-9.389,3.841-12.789,7.57c-0.632,0.695-1.828,1.923-3.005-0.184c-0.772-1.385-1.761-2.658-2.832-3.917
	c-1.586-1.861-3.397-2.939-5.301-3.425c-1.543-0.377-1.657-1.873-1.284-2.723c3.442-7.843-4.918-18.629-13.918-12.865
	c-0.77,0.494-2.427,0.74-2.427-1.136c0-1.636-0.008-3.267,0.075-4.888c0.489-9.382-9.932-11.874-15.923-7.612
	c-0.801,0.802-1.711,0.081-1.987-0.365c-4.523-7.311-18.552-5.583-18.589,5.229c-0.029,8.266-0.076,16.517,0.028,24.768
	c0.01,0.739-0.033,2.278-1.854,2.756c-8.427,2.21-17.023,3.667-25.735,3.7c-6.437,0.023-9.663,5.017-9.677,10.009
	c-0.014,5.013,3.211,10.024,9.677,10c8.942-0.033,17.842-1.23,26.569-3.308c0.616-0.147,1.999-0.547,1.999,1.981
	c0,11.875,2.096,27.203,11.083,35.049c4.069,3.554,8.941,3.118,12.496,0.788c4.897-3.208,7.389-0.623,8.394,4.96
	c0.923,5.119,3.301,11.612,7.041,16.611c1.593,2.13,1.565,7.136-0.342,8.171c-6.598,3.575-12.599,8.262-17.427,13.778
	c-14.074,16.078-13.429,45.787,13.22,46.942c13.578,0.589,22.477-15.025,26.592-25.669c2.295-5.935,4.073-12.01,5.472-18.173
	c1.084-5.345,4.481-5.387,6.195-5.439c5.902-0.188,11.842,0.343,17.529,1.355c26.328,4.685,52.803,14.789,76.235-3.785
	c11.159-8.846,15.625-26.294,11.643-39.685c-3.669-12.338-22.98-7.079-19.294,5.32c7.816,26.287-29.104,26.732-45.329,23.383
	c-6.175-1.275-12.07-2.593-17.878-3.682c-8.399-1.571-4.84-4.463,0.338-11.078c1.285-1.284,2.617-0.908,3.252-0.26
	c1.904,1.945,4.479,3.48,7.893,4.422c5.031,1.381,9.115,0.726,12.479-1.181c0.635-0.361,3.126-0.227,3.796,0.178
	c6.956,4.21,15.392,2.387,22.585-0.737c11.808-5.128,1.609-22.361-10.099-17.278c-2.133,0.927-1.425-10.183-1.438-10.604
	c-0.042-1.362-0.327-2.593-0.798-3.687c-0.616-1.428-0.146-3.702,1.068-4.004c3.922-0.972,7.459-3.563,10.159-7.766
	c0.832-1.295,2.426-0.686,2.89-0.265c5.97,5.396,13.164,9.926,20.681,12.656c15.648,5.683,35.006,5.1,43.977-11.09
	C569.716,509.622,570.125,507.945,570.116,506.365z"/>
</svg>
